<svg xmlns="http://www.w3.org/2000/svg" width="165.72" height="157.856" viewBox="0 0 165.72 157.856">
  <g id="_24時間営業アイコン" data-name="24時間営業アイコン" transform="translate(0 -12.149)">
    <path id="パス_19" data-name="パス 19" d="M86.791,12.149c-2.321,0-4.631.1-6.918.3l1.59,18.308h0q2.622-.225,5.325-.226a60.6,60.6,0,1,1-56.411,82.42l10.067-1.417L14.475,73.583l-5.8,17.5h-.8c0,.71.084,1.4.105,2.105L0,117.218l11.784-1.656A78.917,78.917,0,1,0,86.791,12.149Z" fill="#fff"/>
    <path id="パス_20" data-name="パス 20" d="M81.2,118.32c.988-1.467,2.05-2.894,3.17-4.284L70.082,102.478q-2.168,2.681-4.116,5.557L81.2,118.32Z" transform="translate(-44.615 -61.092)" fill="#fff"/>
    <path id="パス_21" data-name="パス 21" d="M178.466,40.548a60.268,60.268,0,0,1,9.158-3.123L183.113,19.6a78.322,78.322,0,0,0-11.965,4.085l7.318,16.857Z" transform="translate(-115.752 -5.042)" fill="#fff"/>
    <path id="パス_22" data-name="パス 22" d="M125.605,66.075,115.68,50.6a78.754,78.754,0,0,0-10.052,7.644l12.254,13.7A60.675,60.675,0,0,1,125.605,66.075Z" transform="translate(-71.439 -26.006)" fill="#fff"/>
    <path id="パス_23" data-name="パス 23" d="M186.431,193.262c2.913-3.317,4.676-6.763,4.676-11.163,0-7.452-5.346-13.135-14.144-13.135-8.871,0-14.018,5.549-14.491,11.912a.657.657,0,0,0,.544.815l7.441,1.214c.479.068.744-.134.744-.541.4-3.52,2.308-5.415,5.417-5.415,3.183,0,5.01,2.237,5.01,5.281a9.455,9.455,0,0,1-2.7,6.367l-16.179,19.22a1.259,1.259,0,0,0-.344.946v6.3a.639.639,0,0,0,.678.675h27.35a.639.639,0,0,0,.678-.675v-6.7a.64.64,0,0,0-.678-.673h-16.11v-.137Z" transform="translate(-109.836 -106.058)" fill="#fff"/>
    <path id="パス_24" data-name="パス 24" d="M301.862,171.935c.137-.408,0-.681-.468-.681h-8.6a.9.9,0,0,0-.941.544l-13.81,30.391L277.9,203v6.9a.64.64,0,0,0,.678.678h17.934l.4.407v5.617a.64.64,0,0,0,.681.676h7.849a.638.638,0,0,0,.678-.676v-5.617l.407-.407h3.047a.638.638,0,0,0,.67-.678v-6.831a.64.64,0,0,0-.67-.681h-3.047l-.407-.408v-9.946a.642.642,0,0,0-.678-.678H297.6a.643.643,0,0,0-.681.678v9.946l-.4.408h-8.456v-.2Z" transform="translate(-187.955 -107.607)" fill="#fff"/>
  </g>
</svg>
