<svg xmlns="http://www.w3.org/2000/svg" width="176.805" height="189.869" viewBox="0 0 176.805 189.869">
  <g id="マッチョアイコン5" transform="translate(-22.89 24.74) rotate(-8)">
    <path id="パス_18" data-name="パス 18" d="M177.265,114.351c-.588-1.989-1.767-5.6-3.9-12.07-6.912-21.189-44.809-95.5-44.809-95.5A11.714,11.714,0,0,0,116.49.081L69.619,5.824a9.792,9.792,0,0,0-7.438,5.071S56.743,19.8,54.458,25.319,53.5,36.355,58.137,39.594s26.708,8.753,30.9,6.914c6.992-3.093,10.6-17.066,10.6-17.066L110.232,27.6s4.419,15.224,3.679,28.618c-.955,16.555.119,23.455,2.4,37.727-2.9,1-5.939-2.66-12.262-8.586-19.62-18.395-44.2-11.175-55.113,4.929-2.867-2.429-13.563-3.7-25.825-4.929V170c20.848-2.45,30.164-16.708,30.164-16.708,11.412,2.276,29.01.742,43.559-1.719,26.88-4.546,44.736-14.929,44.736-14.929l29.584-10.007A9.747,9.747,0,0,0,177.265,114.351Z" transform="translate(0 0)" fill="#fff"/>
  </g>
</svg>
