<svg xmlns="http://www.w3.org/2000/svg" width="183.242" height="151.621" viewBox="0 0 183.242 151.621">
  <g id="ダンベルのアイコン素材_1" data-name="ダンベルのアイコン素材 1" transform="translate(101.843 -133.436) rotate(31)">
    <path id="パス_13" data-name="パス 13" d="M191.179,228.071h-.062v21.6h50.188v-21.6H191.179Z" transform="translate(-117.203 -54.248)" fill="#fff"/>
    <path id="パス_14" data-name="パス 14" d="M99.661,139.611H84.817c-8.645,0-15.706,5.2-15.706,11.551v66.924c0,6.352,7.06,11.551,15.706,11.551H99.661c4.253,0,7.749-2.561,7.749-5.706V145.317C107.41,142.172,103.914,139.611,99.661,139.611Zm-21.369,44.76.013-29.222c0-4.31,3.328-6.345,6.512-6.345h5.007l1.685.021-6.817,18.42Z" transform="translate(-42.382)" fill="#fff"/>
    <path id="パス_15" data-name="パス 15" d="M366.456,139.611H351.612c-4.253,0-7.749,2.561-7.749,5.706v78.615c0,3.145,3.5,5.706,7.749,5.706h14.844c8.645,0,15.706-5.2,15.706-11.551V151.162C382.162,144.81,375.1,139.611,366.456,139.611Z" transform="translate(-210.875)" fill="#fff"/>
    <path id="パス_16" data-name="パス 16" d="M0,235.187v.034a13.13,13.13,0,0,0,13.1,13.1h6.362v-26.23H13.1A13.13,13.13,0,0,0,0,235.187Z" transform="translate(0 -50.58)" fill="#fff"/>
    <path id="パス_17" data-name="パス 17" d="M468.044,222.089h-6.362v26.23h6.362a13.13,13.13,0,0,0,13.1-13.1v-.034A13.13,13.13,0,0,0,468.044,222.089Z" transform="translate(-283.127 -50.58)" fill="#fff"/>
  </g>
</svg>
