<svg xmlns="http://www.w3.org/2000/svg" width="96.347" height="124.917" viewBox="0 0 96.347 124.917">
  <g id="火の玉のアイコン素材" transform="matrix(0.995, 0.105, -0.105, 0.995, -57.825, -7.358)">
    <path id="パス_25" data-name="パス 25" d="M130.076,23.841c-7.886-6.312-10.97-13.278-12.156-18.229-.951-3.978-.445-4.406-.445-4.406A1.341,1.341,0,0,0,116.7.124a1.331,1.331,0,0,0-1.321.11s-1.528.331-4.021,2.75c-5.67,5.506-12.088,14.7-7.857,27.258,4.534,13.478,2.137,16.3-.239,16.113-3.081-.235-3.558-2.133-3.063-8.039.574-6.9-5.688-12.8-5.688-12.8S84.781,40.984,77.195,52.047A40.546,40.546,0,0,0,70.56,74.479h-.15a42.228,42.228,0,1,0,84.456,0C156.469,54.227,145.47,36.154,130.076,23.841Zm-17.364,80.976A23.293,23.293,0,0,1,92.735,69.545a15.807,15.807,0,1,0,30.332-8.887,23.293,23.293,0,0,1-10.354,44.159Z" transform="translate(0 0)" fill="#fff"/>
  </g>
</svg>
