<svg xmlns="http://www.w3.org/2000/svg" width="150.071" height="68.23" viewBox="0 0 150.071 68.23">
  <g id="ダンベルのアイコン素材_1" data-name="ダンベルのアイコン素材 1" transform="translate(0 -139.611)">
    <path id="パス_13" data-name="パス 13" d="M191.164,228.071h-.047v16.372h38.037V228.071h-37.99Z" transform="translate(-135.099 -62.532)"/>
    <path id="パス_14" data-name="パス 14" d="M92.264,139.611H81.014c-6.552,0-11.9,3.94-11.9,8.755v50.721c0,4.814,5.351,8.755,11.9,8.755h11.25c3.224,0,5.873-1.941,5.873-4.324V143.935C98.137,141.552,95.487,139.611,92.264,139.611ZM76.069,173.534l.01-22.147a4.678,4.678,0,0,1,4.935-4.808h3.795l1.277.016-5.167,13.96Z" transform="translate(-48.854)"/>
    <path id="パス_15" data-name="パス 15" d="M360.986,139.611h-11.25c-3.224,0-5.873,1.941-5.873,4.325v59.581c0,2.383,2.649,4.324,5.873,4.324h11.25c6.552,0,11.9-3.94,11.9-8.755v-50.72C372.889,143.551,367.537,139.611,360.986,139.611Z" transform="translate(-243.074)"/>
    <path id="パス_16" data-name="パス 16" d="M0,232.016v.026a9.951,9.951,0,0,0,9.927,9.927h4.822V222.089H9.927A9.951,9.951,0,0,0,0,232.016Z" transform="translate(0 -58.303)"/>
    <path id="パス_17" data-name="パス 17" d="M466.5,222.089h-4.822v19.879H466.5a9.951,9.951,0,0,0,9.927-9.927v-.026A9.951,9.951,0,0,0,466.5,222.089Z" transform="translate(-326.36 -58.303)"/>
  </g>
</svg>
