<svg xmlns="http://www.w3.org/2000/svg" width="146.396" height="146.396" viewBox="0 0 146.396 146.396">
  <g id="グループ_312" data-name="グループ 312" transform="translate(-759.803 -5060.803)">
    <g id="無料の時計のアイコン_6" data-name="無料の時計のアイコン 6" transform="translate(759.803 5060.803)">
      <path id="パス_68" data-name="パス 68" d="M94.248,161.167l-.128.247,4.492,2.257,4.525,2.652.157-.277q.407-.727.837-1.427l-8.755-5.377Q94.793,160.186,94.248,161.167Z" transform="translate(-67.208 -113.71)"/>
      <path id="パス_69" data-name="パス 69" d="M79.872,252.363c0-.383.007-.768.017-1.151l-12.326-.244q-.022.7-.022,1.4l.007.885,12.332-.154Z" transform="translate(-48.229 -179.209)"/>
      <path id="パス_70" data-name="パス 70" d="M93.391,331.739q.547,1.013,1.144,2.008l8.815-5.281q-.476-.8-.915-1.612Z" transform="translate(-66.688 -233.398)"/>
      <path id="パス_71" data-name="パス 71" d="M384.576,167.734l9.031-4.9q-.551-1.01-1.14-2l-8.815,5.283Q384.134,166.916,384.576,167.734Z" transform="translate(-273.955 -114.844)"/>
      <path id="パス_72" data-name="パス 72" d="M253.817,79.873c.369,0,.739,0,1.106.016l.265-12.327c-.455-.014-.913-.021-1.371-.021l-.933.009.184,12.33Z" transform="translate(-180.577 -48.229)"/>
      <path id="パス_73" data-name="パス 73" d="M167.838,102.5l-4.89-9.037q-1.014.546-2,1.139l5.279,8.818Q167.02,102.947,167.838,102.5Z" transform="translate(-114.925 -66.742)"/>
      <path id="パス_74" data-name="パス 74" d="M335.434,95.645c-.618-.378-1.248-.747-1.919-1.121l-2.563,4.453-2.408,4.54c.516.286,1.021.583,1.519.888Z" transform="translate(-234.604 -67.497)"/>
      <path id="パス_75" data-name="パス 75" d="M326.754,384.745l4.873,9.048q1.017-.546,2.009-1.139l-5.266-8.825Q327.572,384.308,326.754,384.745Z" transform="translate(-233.326 -274.082)"/>
      <path id="パス_76" data-name="パス 76" d="M382.762,330.142l8.739,5.4c.405-.655.795-1.319,1.118-1.9l.162-.288-9.084-4.808C383.4,329.089,383.083,329.621,382.762,330.142Z" transform="translate(-273.319 -234.607)"/>
      <path id="パス_77" data-name="パス 77" d="M159.133,391.559c.638.394,1.288.775,1.977,1.16l4.979-8.991c-.534-.3-1.06-.606-1.577-.922Z" transform="translate(-113.632 -273.351)"/>
      <path id="パス_78" data-name="パス 78" d="M413.609,252.718l-12.327.212.007.773c0,.357-.007.715-.017,1.075l12.326.256q.022-.667.022-1.33Z" transform="translate(-286.538 -180.459)"/>
      <path id="パス_79" data-name="パス 79" d="M252.229,401.293q-.584,0-1.17-.019l-.281,12.325c.484.018.969.025,1.451.025l.849-.007-.161-12.332Z" transform="translate(-179.073 -286.538)"/>
      <path id="パス_80" data-name="パス 80" d="M73.2,0a73.2,73.2,0,1,0,73.2,73.2A73.281,73.281,0,0,0,73.2,0Zm0,133.128A59.93,59.93,0,1,1,133.13,73.2,60,60,0,0,1,73.2,133.128Z"/>
      <path id="パス_81" data-name="パス 81" d="M227.893,139.229l-5.727-6.028-30.407,28.886-19.093-19.093-7.823,7.824,18.891,18.892-6.465,6.141,5.728,6.03,6.618-6.288,6.878,6.878,7.823-7.824-6.678-6.678Zm-36.985,32.824a3.739,3.739,0,1,1,3.738-3.74A3.739,3.739,0,0,1,190.907,172.053Z" transform="translate(-117.71 -95.115)"/>
    </g>
    <g id="ランニングアイコン1" transform="translate(759.42 5078.795)">
      <path id="パス_82" data-name="パス 82" d="M178.582,23.7a11.848,11.848,0,1,0-11.847-11.85A11.849,11.849,0,0,0,178.582,23.7Z" transform="translate(-112.405)"/>
      <path id="パス_83" data-name="パス 83" d="M121.161,200.718l-17.417-11.135-14.034-22.05L85.09,141.467l15.031-1.4,12.933,8.365a4.166,4.166,0,0,0,5.4-.748l.074-.086a4.165,4.165,0,0,0-.361-5.865l-11.576-10.291a7.208,7.208,0,0,0-4.514-1.812l-28.883-1.61a14.368,14.368,0,0,0-1.718.017c-.372.031-.747.076-1.122.139a12.42,12.42,0,0,0-5.562,2.46L43.55,143.463l-13.378-7.483a4.418,4.418,0,0,0-5.935,1.561l-.168.276a4.419,4.419,0,0,0,1.511,6.09l15.942,9.515a7.574,7.574,0,0,0,6.562.582l13.451-5.085,4.478,18.058L47.12,166.9a8.378,8.378,0,0,0-8.256,9.975l5.006,25.776a5.432,5.432,0,0,0,6.136,4.335l.215-.033a5.428,5.428,0,0,0,4.6-5.865l-1.7-18.469,26.29.831,12.314,12.406a25.1,25.1,0,0,0,5.81,4.366l18.291,9.991a5.346,5.346,0,0,0,7.121-2.143l.1-.176A5.346,5.346,0,0,0,121.161,200.718Z" transform="translate(0 -100.4)"/>
    </g>
  </g>
</svg>
