<svg xmlns="http://www.w3.org/2000/svg" width="145.662" height="88.615" viewBox="0 0 145.662 88.615">
  <g id="宿泊アイコン2" transform="translate(0 -100.26)">
    <path id="パス_65" data-name="パス 65" d="M90.583,163.053A11.051,11.051,0,1,0,79.533,152,11.05,11.05,0,0,0,90.583,163.053Z" transform="translate(-56.906 -29.115)"/>
    <path id="パス_66" data-name="パス 66" d="M83.472,177.243h102.4a15.478,15.478,0,0,0,10.5-3.85,13.438,13.438,0,0,0,3.2-4.363,12.858,12.858,0,0,0,1.166-5.337,13.144,13.144,0,0,0-1.226-5.5,16,16,0,0,0-5.959-6.656,26.6,26.6,0,0,0-9.8-3.665l-.181-.03-70.3-10.525a5.79,5.79,0,0,0-6.646,5.728v22.625H83.472a5.788,5.788,0,1,0,0,11.577Z" transform="translate(-55.583 -26.468)"/>
    <path id="パス_67" data-name="パス 67" d="M13.682,156.039V107.1A6.841,6.841,0,1,0,0,107.1v81.773H13.682V169.721h118.3v19.154h13.685V156.039Z" transform="translate(0)"/>
  </g>
</svg>
